<svg xmlns="http://www.w3.org/2000/svg" viewBox="0 0 100 100" fill="currentColor" aria-hidden="true">
  <!-- Llama central -->
  <path d="M50 8
           C 54 22, 62 32, 60 48
           C 58 60, 53 70, 50 76
           C 47 70, 42 60, 40 48
           C 38 32, 46 22, 50 8 Z" />
  <!-- Detalle interno de la llama (hueco) -->
  <path d="M50 28
           C 52 36, 56 44, 54 52
           C 53 58, 51 64, 50 66
           C 49 64, 47 58, 46 52
           C 44 44, 48 36, 50 28 Z"
        fill="#1F1A12" opacity="0.18" />
  <!-- Hoja izquierda -->
  <path d="M42 64
           C 28 66, 16 60, 12 50
           C 22 60, 32 64, 44 68
           Z" />
  <!-- Hoja derecha -->
  <path d="M58 64
           C 72 66, 84 60, 88 50
           C 78 60, 68 64, 56 68
           Z" />
  <!-- Tallo central inferior -->
  <path d="M48 70 L48 84 Q50 86 52 84 L52 70 Z" />
</svg>
